<?xml version="1.0" encoding="UTF-8"?>
<svg width="60px" height="45px" viewBox="0 0 60 45" version="1.1" xmlns="http://www.w3.org/2000/svg" xmlns:xlink="http://www.w3.org/1999/xlink">
    <!-- Generator: Sketch 63 (92445) - https://sketch.com -->
    <title>shibai</title>
    <desc>Created with Sketch.</desc>
    <g id="Page-1" stroke="none" stroke-width="1" fill="none" fill-rule="evenodd">
        <g id="素材库" transform="translate(-1093.000000, -286.000000)" fill="#C1C1C1" fill-rule="nonzero">
            <g id="小胖车图片加载失败" transform="translate(1093.000000, 286.000000)">
                <path d="M42.007468,18.6441891 C44.7648014,18.6441891 47,16.394538 47,13.6189142 C47,10.8432904 44.7620855,8.59432692 42.007468,8.59432692 C39.2528504,8.59432692 37.0142569,10.8439779 37.0142569,13.6189142 C37.0142569,16.3938505 39.2494556,18.6441891 42.007468,18.6441891 Z M31.0969556,31.3892321 L12.5194132,13.5542849 C12.1291656,13.757001 11.7763597,14.0263397 11.4765015,14.3504633 L3.73614176,22.575578 L3.32875441,7.25911229 C3.27918895,5.41511351 4.74374649,3.86194675 6.56544695,3.81175588 L20.2652048,3.43773077 L23.479491,0 L6.47582173,0.464093654 C2.80118778,0.567225577 -0.0960152998,3.65018253 0.00243664461,7.35124348 L0.499449219,26.0112461 L0.804989736,37.4781408 C0.904120659,41.1785142 3.95884685,44.0985228 7.63551774,43.9974535 L19.5855469,43.6708691 L20.4003216,43.6488676 L23.6146078,40.2111368 L31.502985,31.7790708 L31.0969556,31.3892321 Z" id="形状"></path>
                <path d="M54.1499198,2.30112366 L37.3469454,0 L33.5349129,2.81761923 L53.6856116,5.5767929 C55.534795,5.8317827 56.8269326,7.5059296 56.5773313,9.32342455 L52.8178881,35.7999387 L44.454113,24.9909098 C43.0763969,23.2120446 40.4955019,22.8579104 38.6741334,24.1978172 L35.6294895,26.4459321 L40.1321026,32.3006812 L36.3062308,35.139368 L30.8002691,39.2237606 L27,42.042739 L29.3644428,42.3662283 L48.0979981,44.9323958 C51.7033553,45.4390343 55.0678502,43.0452585 55.7013042,39.5227843 C55.722492,39.4461305 55.7375306,39.3679638 55.7462819,39.2890021 L59.9347431,9.78351336 C60.4495647,6.15988921 57.8623094,2.80946403 54.1499198,2.30112366 L54.1499198,2.30112366 Z" id="路径"></path>
            </g>
        </g>
    </g>
</svg>