<?xml version="1.0" encoding="UTF-8"?>
<svg width="22px" height="18px" viewBox="0 0 22 18" version="1.1" xmlns="http://www.w3.org/2000/svg" xmlns:xlink="http://www.w3.org/1999/xlink">
    <!-- Generator: Sketch 63 (92445) - https://sketch.com -->
    <title>baocun</title>
    <desc>Created with Sketch.</desc>
    <g id="Page-1" stroke="none" stroke-width="1" fill="none" fill-rule="evenodd">
        <g id="视角" transform="translate(-1113.000000, -13.000000)" fill="#5E5750" fill-rule="nonzero">
            <g id="编组-2" transform="translate(1021.000000, 12.000000)">
                <g id="保存" transform="translate(92.000000, 1.000000)">
                    <path d="M18.8226601,3.55842558 C18.9146141,3.66338663 18.9671593,3.78474785 18.9802956,3.92250923 C18.9934319,4.0602706 19,4.16851169 19,4.24723247 L19,14.8154982 C19,15.4321443 18.7898194,15.9503895 18.3694581,16.3702337 C17.9490969,16.7900779 17.3908046,17 16.6945813,17 L5.30541872,17 C4.59605911,17 4.03448276,16.8228782 3.62068966,16.4686347 C3.20689655,16.1143911 3,15.5764658 3,14.8548585 L3,3.34194342 C3,2.63345633 3.20689655,2.06601066 3.62068966,1.6396064 C4.03448276,1.21320213 4.59605911,1 5.30541872,1 L15.7487685,1 C15.8801314,1 16.0114943,1.01640016 16.1428571,1.04920049 C16.27422,1.08200082 16.3661741,1.12464125 16.4187192,1.17712177 L18.8226601,3.55842558 Z M15.3349754,2.8499385 C15.3087028,2.44321443 15.091954,2.2398524 14.6847291,2.2398524 L6.09359606,2.2398524 C5.89655172,2.22673227 5.73891626,2.27921279 5.62068966,2.39729397 C5.50246305,2.51537515 5.44334975,2.65313653 5.44334975,2.81057811 L5.44334975,6.01845018 C5.44334975,6.1496515 5.4729064,6.28413284 5.5320197,6.42189422 C5.591133,6.5596556 5.67323481,6.68429684 5.77832512,6.79581796 C5.88341544,6.90733907 6.00492611,6.99917999 6.14285714,7.07134071 C6.28078818,7.14350144 6.42857143,7.1795818 6.5862069,7.1795818 L14.0738916,7.1795818 C14.4285714,7.1795818 14.727422,7.07462075 14.9704433,6.86469865 C15.2134647,6.65477655 15.3349754,6.3398934 15.3349754,5.9200492 L15.3349754,2.8499385 L15.3349754,2.8499385 Z M15.3349754,11.7060271 C15.3349754,11.1418614 15.045977,10.8532185 14.4679803,10.8400984 L6.33004926,10.8400984 C6.02791461,10.8400984 5.8045977,10.9188192 5.66009852,11.0762608 C5.51559934,11.2337023 5.44334975,11.4436244 5.44334975,11.7060271 L5.44334975,14.5793358 L15.3349754,14.5793358 L15.3349754,11.7060271 Z" id="形状"></path>
                </g>
            </g>
        </g>
    </g>
</svg>