<?xml version="1.0" encoding="UTF-8"?>
<svg width="20px" height="20px" viewBox="0 0 20 20" version="1.1" xmlns="http://www.w3.org/2000/svg" xmlns:xlink="http://www.w3.org/1999/xlink">
    <!-- Generator: Sketch 63 (92445) - https://sketch.com -->
    <title>fanhui</title>
    <desc>Created with Sketch.</desc>
    <g id="Page-1" stroke="none" stroke-width="1" fill="none" fill-rule="evenodd">
        <g id="视角" transform="translate(-20.000000, -21.000000)">
            <g id="fanhui" transform="translate(20.000000, 21.000000)">
                <rect id="矩形" fill="#FF6B00" x="0" y="0" width="20" height="20" rx="2"></rect>
                <g id="返回" transform="translate(3.000000, 3.000000)" fill="#FFFFFF" fill-rule="nonzero">
                    <path d="M8.41,13.2666667 L4.39933333,13.2666667 C4.18,13.2666667 4.00766667,13.0943333 4.00766667,12.875 L4.00766667,11.8801667 C4.00766667,11.6608333 4.18,11.4885 4.39933333,11.4885 L8.41,11.4885 C10.3213333,11.4885 11.8723333,10.0236667 11.8723333,8.22983333 C11.8723333,6.436 10.3213333,4.97116667 8.41,4.97116667 L1.81433333,4.97116667 L1.81433333,3.193 L8.41,3.193 C11.3005,3.193 13.6505,5.449 13.6505,8.22983333 C13.6505,11.0028333 11.3005,13.2666667 8.41,13.2666667 L8.41,13.2666667 Z" id="路径"></path>
                    <path d="M4.086,7.57966667 L0.749,4.2505 C0.655,4.1565 0.655,4.00766667 0.749,3.9215 L4.086,0.5845 C4.24266667,0.427833333 4.4855,0.427833333 4.64216667,0.5845 L5.34716667,1.2895 C5.50383333,1.44616667 5.50383333,1.689 5.34716667,1.84566667 L3.099,4.086 L5.33933333,6.32633333 C5.496,6.483 5.496,6.72583333 5.33933333,6.8825 L4.63433333,7.5875 C4.4855,7.73633333 4.23483333,7.73633333 4.086,7.57966667 L4.086,7.57966667 Z" id="路径"></path>
                </g>
            </g>
        </g>
    </g>
</svg>