<?xml version="1.0" encoding="UTF-8"?>
<svg width="32px" height="32px" viewBox="0 0 32 32" version="1.1" xmlns="http://www.w3.org/2000/svg" xmlns:xlink="http://www.w3.org/1999/xlink">
    <!-- Generator: Sketch 63 (92445) - https://sketch.com -->
    <title>vrtubiao</title>
    <desc>Created with Sketch.</desc>
    <g id="Page-1" stroke="none" stroke-width="1" fill="none" fill-rule="evenodd">
        <g id="供应商认证管理_验厂信息1" transform="translate(-478.000000, -697.000000)" fill="#FF6B00">
            <g id="编组-9" transform="translate(274.000000, 265.000000)">
                <g id="分组-6" transform="translate(0.000000, 151.000000)">
                    <g id="分组-5备份" transform="translate(180.000000, 265.000000)">
                        <g id="vrtubiao" transform="translate(24.000000, 16.000000)">
                            <circle id="椭圆形" fill-opacity="0.1" cx="16" cy="16" r="16"></circle>
                            <path d="M21.7142857,19 C24.0812203,19 26,16.9852813 26,14.5 C26,12.0147186 24.0812203,10 21.7142857,10 L16.3333333,10 L12.2190476,19.27 L8.1,10 L6,10 L12.2190476,24 L17.547619,12 L21.7142857,12 C23.0291594,12.0001337 24.0950076,13.1193827 24.0950076,14.5 C24.0950076,15.8806174 23.0291594,16.9998663 21.7142857,17 L16.6380952,17 L23.3047619,24 L26,24 L21.2380952,19 L21.7142857,19 Z" id="路径" fill-rule="nonzero"></path>
                        </g>
                    </g>
                </g>
            </g>
        </g>
    </g>
</svg>