<?xml version="1.0" encoding="UTF-8"?>
<svg width="22px" height="18px" viewBox="0 0 22 18" version="1.1" xmlns="http://www.w3.org/2000/svg" xmlns:xlink="http://www.w3.org/1999/xlink">
    <!-- Generator: Sketch 63 (92445) - https://sketch.com -->
    <title>yulan</title>
    <desc>Created with Sketch.</desc>
    <g id="Page-1" stroke="none" stroke-width="1" fill="none" fill-rule="evenodd">
        <g id="视角" transform="translate(-1024.000000, -12.000000)" fill="#5E5750" fill-rule="nonzero">
            <g id="编组-2" transform="translate(1021.000000, 12.000000)">
                <g id="预览" transform="translate(3.000000, 0.000000)">
                    <path d="M11,16 C4.92356851,16 0,9.74474367 0,8.50201306 C0,7.60687125 4.92356851,1 11,1 C17.0750256,1 22,7.66726313 22,8.50201306 C21.9985941,9.75011184 17.0736196,16 11,16 L11,16 Z M10.858001,4.54970028 C7.91960634,4.54970028 4.49194785,5.87429543 4.49194785,8.67916257 C4.49194785,11.4840297 7.91960634,12.5093496 10.858001,12.5093496 C13.7963957,12.5093496 17.2802914,11.4840297 17.2802914,8.67916257 C17.2802914,5.87429543 13.7963957,4.54970028 10.858001,4.54970028 L10.858001,4.54970028 Z M10.918456,6.61107632 C10.918456,7.57332021 11.7381135,8.35304643 12.7419479,8.35304643 C12.980956,8.35304643 13.2016871,8.30607498 13.4097648,8.23092064 C13.4182004,8.31144314 13.4392894,8.38928156 13.4392894,8.47383019 C13.4392894,9.84808088 12.2681493,10.9619755 10.8312883,10.9619755 C9.39161554,10.9619755 8.22469325,9.84808088 8.22469325,8.47383019 C8.22469325,7.09823745 9.39161554,5.98300081 10.8312883,5.98300081 C10.9043967,5.98300081 10.9732873,5.99910531 11.0435838,6.00447347 C10.9662577,6.19370135 10.918456,6.3950076 10.918456,6.61107632 L10.918456,6.61107632 Z" id="形状"></path>
                </g>
            </g>
        </g>
    </g>
</svg>